<mxfile host="app.diagrams.net" agent="Mozilla/5.0 (Windows NT 10.0; Win64; x64) AppleWebKit/537.36 (KHTML, like Gecko) Chrome/137.0.0.0 Safari/537.36" version="27.1.4">
  <diagram name="Page-1" id="VQ80fOjF0iFnvT11kduf">
    <mxGraphModel dx="1642" dy="1696" grid="1" gridSize="10" guides="1" tooltips="1" connect="1" arrows="1" fold="1" page="1" pageScale="1" pageWidth="850" pageHeight="1100" math="0" shadow="0">
      <root>
        <mxCell id="0" />
        <mxCell id="1" parent="0" />
        <mxCell id="D2WR1grr18W3K_KFmwj1-1" value="Student" style="rounded=0;whiteSpace=wrap;html=1;" parent="1" vertex="1">
          <mxGeometry x="110" y="-16.25" width="100" height="40" as="geometry" />
        </mxCell>
        <mxCell id="D2WR1grr18W3K_KFmwj1-3" value="TO" style="rounded=0;whiteSpace=wrap;html=1;" parent="1" vertex="1">
          <mxGeometry x="881.25" y="205" width="100" height="30" as="geometry" />
        </mxCell>
        <mxCell id="D2WR1grr18W3K_KFmwj1-4" value="Lecturer&amp;nbsp;" style="rounded=0;whiteSpace=wrap;html=1;" parent="1" vertex="1">
          <mxGeometry x="550" y="370" width="115" height="40" as="geometry" />
        </mxCell>
        <mxCell id="D2WR1grr18W3K_KFmwj1-5" value="Laboratory" style="rounded=0;whiteSpace=wrap;html=1;" parent="1" vertex="1">
          <mxGeometry x="850" y="-18" width="80" height="22.5" as="geometry" />
        </mxCell>
        <mxCell id="D2WR1grr18W3K_KFmwj1-6" value="Practical&amp;nbsp;" style="rounded=0;whiteSpace=wrap;html=1;" parent="1" vertex="1">
          <mxGeometry x="440" y="-76.25" width="120" height="30" as="geometry" />
        </mxCell>
        <mxCell id="D2WR1grr18W3K_KFmwj1-7" value="Subject" style="rounded=0;whiteSpace=wrap;html=1;" parent="1" vertex="1">
          <mxGeometry x="223.75" y="210" width="130" height="40" as="geometry" />
        </mxCell>
        <mxCell id="D2WR1grr18W3K_KFmwj1-8" value="Name" style="ellipse;whiteSpace=wrap;html=1;" parent="1" vertex="1">
          <mxGeometry x="20" y="-106.25" width="60" height="30" as="geometry" />
        </mxCell>
        <mxCell id="D2WR1grr18W3K_KFmwj1-9" value="&lt;u&gt;ID&lt;/u&gt;" style="ellipse;whiteSpace=wrap;html=1;" parent="1" vertex="1">
          <mxGeometry x="90" y="-101.25" width="40" height="25" as="geometry" />
        </mxCell>
        <mxCell id="D2WR1grr18W3K_KFmwj1-10" value="Address&amp;nbsp;" style="ellipse;whiteSpace=wrap;html=1;" parent="1" vertex="1">
          <mxGeometry x="130" y="-71.25" width="60" height="25" as="geometry" />
        </mxCell>
        <mxCell id="D2WR1grr18W3K_KFmwj1-11" value="Gender" style="ellipse;whiteSpace=wrap;html=1;" parent="1" vertex="1">
          <mxGeometry x="180" y="-96.25" width="60" height="30" as="geometry" />
        </mxCell>
        <mxCell id="D2WR1grr18W3K_KFmwj1-12" value="Dept" style="ellipse;whiteSpace=wrap;html=1;" parent="1" vertex="1">
          <mxGeometry y="-58.25" width="60" height="30" as="geometry" />
        </mxCell>
        <mxCell id="D2WR1grr18W3K_KFmwj1-13" value="" style="endArrow=none;html=1;rounded=0;entryX=1;entryY=0.5;entryDx=0;entryDy=0;exitX=0;exitY=0;exitDx=0;exitDy=0;" parent="1" source="D2WR1grr18W3K_KFmwj1-1" target="D2WR1grr18W3K_KFmwj1-8" edge="1">
          <mxGeometry width="50" height="50" relative="1" as="geometry">
            <mxPoint x="490" y="163.75" as="sourcePoint" />
            <mxPoint x="540" y="113.75" as="targetPoint" />
            <Array as="points" />
          </mxGeometry>
        </mxCell>
        <mxCell id="D2WR1grr18W3K_KFmwj1-14" value="" style="endArrow=none;html=1;rounded=0;entryX=0.5;entryY=1;entryDx=0;entryDy=0;" parent="1" target="D2WR1grr18W3K_KFmwj1-10" edge="1">
          <mxGeometry width="50" height="50" relative="1" as="geometry">
            <mxPoint x="160" y="-16.25" as="sourcePoint" />
            <mxPoint x="210" y="-66.25" as="targetPoint" />
          </mxGeometry>
        </mxCell>
        <mxCell id="D2WR1grr18W3K_KFmwj1-15" value="" style="endArrow=none;html=1;rounded=0;entryX=1;entryY=1;entryDx=0;entryDy=0;" parent="1" target="D2WR1grr18W3K_KFmwj1-9" edge="1">
          <mxGeometry width="50" height="50" relative="1" as="geometry">
            <mxPoint x="130" y="-16.25" as="sourcePoint" />
            <mxPoint x="180" y="-66.25" as="targetPoint" />
          </mxGeometry>
        </mxCell>
        <mxCell id="D2WR1grr18W3K_KFmwj1-18" value="" style="endArrow=none;html=1;rounded=0;exitX=1;exitY=0.5;exitDx=0;exitDy=0;" parent="1" source="D2WR1grr18W3K_KFmwj1-12" edge="1">
          <mxGeometry width="50" height="50" relative="1" as="geometry">
            <mxPoint x="60" y="53.75" as="sourcePoint" />
            <mxPoint x="110" y="3.75" as="targetPoint" />
          </mxGeometry>
        </mxCell>
        <mxCell id="D2WR1grr18W3K_KFmwj1-19" value="" style="endArrow=none;html=1;rounded=0;entryX=0.5;entryY=1;entryDx=0;entryDy=0;" parent="1" target="D2WR1grr18W3K_KFmwj1-11" edge="1">
          <mxGeometry width="50" height="50" relative="1" as="geometry">
            <mxPoint x="180" y="-16.25" as="sourcePoint" />
            <mxPoint x="230" y="-66.25" as="targetPoint" />
          </mxGeometry>
        </mxCell>
        <mxCell id="D2WR1grr18W3K_KFmwj1-20" value="Instructors" style="rounded=0;whiteSpace=wrap;html=1;" parent="1" vertex="1">
          <mxGeometry x="635" y="115" width="100" height="40" as="geometry" />
        </mxCell>
        <mxCell id="D2WR1grr18W3K_KFmwj1-21" value="Name" style="ellipse;whiteSpace=wrap;html=1;" parent="1" vertex="1">
          <mxGeometry x="545" y="185" width="60" height="30" as="geometry" />
        </mxCell>
        <mxCell id="D2WR1grr18W3K_KFmwj1-22" value="&lt;u&gt;ID&lt;/u&gt;" style="ellipse;whiteSpace=wrap;html=1;" parent="1" vertex="1">
          <mxGeometry x="705" y="50" width="40" height="25" as="geometry" />
        </mxCell>
        <mxCell id="D2WR1grr18W3K_KFmwj1-23" value="Address&amp;nbsp;" style="ellipse;whiteSpace=wrap;html=1;" parent="1" vertex="1">
          <mxGeometry x="515" y="95" width="60" height="25" as="geometry" />
        </mxCell>
        <mxCell id="D2WR1grr18W3K_KFmwj1-24" value="Gender" style="ellipse;whiteSpace=wrap;html=1;" parent="1" vertex="1">
          <mxGeometry x="685" y="205" width="60" height="30" as="geometry" />
        </mxCell>
        <mxCell id="D2WR1grr18W3K_KFmwj1-25" value="Dept" style="ellipse;whiteSpace=wrap;html=1;" parent="1" vertex="1">
          <mxGeometry x="525" y="135" width="60" height="30" as="geometry" />
        </mxCell>
        <mxCell id="D2WR1grr18W3K_KFmwj1-26" value="" style="endArrow=none;html=1;rounded=0;entryX=1;entryY=0.5;entryDx=0;entryDy=0;exitX=0;exitY=1;exitDx=0;exitDy=0;" parent="1" source="D2WR1grr18W3K_KFmwj1-20" target="D2WR1grr18W3K_KFmwj1-21" edge="1">
          <mxGeometry width="50" height="50" relative="1" as="geometry">
            <mxPoint x="1015" y="310" as="sourcePoint" />
            <mxPoint x="1065" y="260" as="targetPoint" />
            <Array as="points" />
          </mxGeometry>
        </mxCell>
        <mxCell id="D2WR1grr18W3K_KFmwj1-27" value="" style="endArrow=none;html=1;rounded=0;entryX=1;entryY=0.5;entryDx=0;entryDy=0;exitX=0;exitY=0;exitDx=0;exitDy=0;" parent="1" source="D2WR1grr18W3K_KFmwj1-20" target="D2WR1grr18W3K_KFmwj1-23" edge="1">
          <mxGeometry width="50" height="50" relative="1" as="geometry">
            <mxPoint x="685" y="130" as="sourcePoint" />
            <mxPoint x="735" y="80" as="targetPoint" />
          </mxGeometry>
        </mxCell>
        <mxCell id="D2WR1grr18W3K_KFmwj1-28" value="" style="endArrow=none;html=1;rounded=0;entryX=0.5;entryY=1;entryDx=0;entryDy=0;exitX=0.5;exitY=0;exitDx=0;exitDy=0;" parent="1" source="D2WR1grr18W3K_KFmwj1-20" target="D2WR1grr18W3K_KFmwj1-22" edge="1">
          <mxGeometry width="50" height="50" relative="1" as="geometry">
            <mxPoint x="655" y="130" as="sourcePoint" />
            <mxPoint x="705" y="80" as="targetPoint" />
          </mxGeometry>
        </mxCell>
        <mxCell id="D2WR1grr18W3K_KFmwj1-29" value="" style="endArrow=none;html=1;rounded=0;exitX=1;exitY=0.5;exitDx=0;exitDy=0;" parent="1" source="D2WR1grr18W3K_KFmwj1-25" edge="1">
          <mxGeometry width="50" height="50" relative="1" as="geometry">
            <mxPoint x="585" y="200" as="sourcePoint" />
            <mxPoint x="635" y="150" as="targetPoint" />
          </mxGeometry>
        </mxCell>
        <mxCell id="D2WR1grr18W3K_KFmwj1-30" value="" style="endArrow=none;html=1;rounded=0;entryX=0.5;entryY=0;entryDx=0;entryDy=0;exitX=0.75;exitY=1;exitDx=0;exitDy=0;" parent="1" source="D2WR1grr18W3K_KFmwj1-20" target="D2WR1grr18W3K_KFmwj1-24" edge="1">
          <mxGeometry width="50" height="50" relative="1" as="geometry">
            <mxPoint x="715" y="175" as="sourcePoint" />
            <mxPoint x="755" y="80" as="targetPoint" />
          </mxGeometry>
        </mxCell>
        <mxCell id="D2WR1grr18W3K_KFmwj1-33" value="Contact" style="ellipse;whiteSpace=wrap;html=1;" parent="1" vertex="1">
          <mxGeometry x="605" y="65" width="55" height="30" as="geometry" />
        </mxCell>
        <mxCell id="D2WR1grr18W3K_KFmwj1-34" value="" style="endArrow=none;html=1;rounded=0;entryX=0.25;entryY=0;entryDx=0;entryDy=0;exitX=1;exitY=1;exitDx=0;exitDy=0;" parent="1" source="D2WR1grr18W3K_KFmwj1-33" target="D2WR1grr18W3K_KFmwj1-20" edge="1">
          <mxGeometry width="50" height="50" relative="1" as="geometry">
            <mxPoint x="955" y="95" as="sourcePoint" />
            <mxPoint x="1005" y="45" as="targetPoint" />
          </mxGeometry>
        </mxCell>
        <mxCell id="D2WR1grr18W3K_KFmwj1-35" value="" style="endArrow=none;html=1;rounded=0;exitX=0.5;exitY=1;exitDx=0;exitDy=0;" parent="1" source="D2WR1grr18W3K_KFmwj1-7" target="D2WR1grr18W3K_KFmwj1-36" edge="1">
          <mxGeometry width="50" height="50" relative="1" as="geometry">
            <mxPoint x="233.75" y="280" as="sourcePoint" />
            <mxPoint x="263.75" y="250" as="targetPoint" />
          </mxGeometry>
        </mxCell>
        <mxCell id="D2WR1grr18W3K_KFmwj1-36" value="Name" style="ellipse;whiteSpace=wrap;html=1;" parent="1" vertex="1">
          <mxGeometry x="303.75" y="280" width="60" height="40" as="geometry" />
        </mxCell>
        <mxCell id="D2WR1grr18W3K_KFmwj1-37" value="&lt;u&gt;Course code&lt;/u&gt;" style="ellipse;whiteSpace=wrap;html=1;" parent="1" vertex="1">
          <mxGeometry x="110" y="220" width="80" height="40" as="geometry" />
        </mxCell>
        <mxCell id="D2WR1grr18W3K_KFmwj1-38" value="" style="endArrow=none;html=1;rounded=0;exitX=1;exitY=0.5;exitDx=0;exitDy=0;entryX=0;entryY=0.75;entryDx=0;entryDy=0;" parent="1" source="D2WR1grr18W3K_KFmwj1-37" target="D2WR1grr18W3K_KFmwj1-7" edge="1">
          <mxGeometry width="50" height="50" relative="1" as="geometry">
            <mxPoint x="173.75" y="239.99999999999977" as="sourcePoint" />
            <mxPoint x="453.75" y="220" as="targetPoint" />
          </mxGeometry>
        </mxCell>
        <mxCell id="D2WR1grr18W3K_KFmwj1-39" value="Credit" style="ellipse;whiteSpace=wrap;html=1;" parent="1" vertex="1">
          <mxGeometry x="233.75" y="290" width="60" height="30" as="geometry" />
        </mxCell>
        <mxCell id="D2WR1grr18W3K_KFmwj1-40" value="" style="endArrow=none;html=1;rounded=0;exitX=0.5;exitY=0;exitDx=0;exitDy=0;entryX=0.25;entryY=1;entryDx=0;entryDy=0;" parent="1" source="D2WR1grr18W3K_KFmwj1-39" target="D2WR1grr18W3K_KFmwj1-7" edge="1">
          <mxGeometry width="50" height="50" relative="1" as="geometry">
            <mxPoint x="403.75" y="270" as="sourcePoint" />
            <mxPoint x="453.75" y="220" as="targetPoint" />
          </mxGeometry>
        </mxCell>
        <mxCell id="D2WR1grr18W3K_KFmwj1-42" value="" style="endArrow=none;html=1;rounded=0;entryX=1;entryY=1;entryDx=0;entryDy=0;exitX=0.5;exitY=0;exitDx=0;exitDy=0;" parent="1" source="D2WR1grr18W3K_KFmwj1-41" target="D2WR1grr18W3K_KFmwj1-1" edge="1">
          <mxGeometry width="50" height="50" relative="1" as="geometry">
            <mxPoint x="250" y="46.25" as="sourcePoint" />
            <mxPoint x="490" y="113.75" as="targetPoint" />
          </mxGeometry>
        </mxCell>
        <mxCell id="D2WR1grr18W3K_KFmwj1-41" value="" style="rhombus;whiteSpace=wrap;html=1;" parent="1" vertex="1">
          <mxGeometry x="220" y="77.5" width="100" height="80" as="geometry" />
        </mxCell>
        <mxCell id="D2WR1grr18W3K_KFmwj1-43" value="" style="endArrow=none;html=1;rounded=0;exitX=0.5;exitY=1;exitDx=0;exitDy=0;entryX=0.5;entryY=0;entryDx=0;entryDy=0;" parent="1" source="D2WR1grr18W3K_KFmwj1-41" target="D2WR1grr18W3K_KFmwj1-7" edge="1">
          <mxGeometry width="50" height="50" relative="1" as="geometry">
            <mxPoint x="213.75" y="177.49999999999977" as="sourcePoint" />
            <mxPoint x="453.75" y="220" as="targetPoint" />
          </mxGeometry>
        </mxCell>
        <mxCell id="D2WR1grr18W3K_KFmwj1-45" value="Name" style="ellipse;whiteSpace=wrap;html=1;" parent="1" vertex="1">
          <mxGeometry x="550" y="440" width="55" height="30" as="geometry" />
        </mxCell>
        <mxCell id="D2WR1grr18W3K_KFmwj1-46" value="" style="endArrow=none;html=1;rounded=0;entryX=0.25;entryY=1;entryDx=0;entryDy=0;exitX=0.5;exitY=0;exitDx=0;exitDy=0;" parent="1" source="D2WR1grr18W3K_KFmwj1-45" target="D2WR1grr18W3K_KFmwj1-4" edge="1">
          <mxGeometry width="50" height="50" relative="1" as="geometry">
            <mxPoint x="990" y="497.5" as="sourcePoint" />
            <mxPoint x="608.75" y="417.5" as="targetPoint" />
          </mxGeometry>
        </mxCell>
        <mxCell id="D2WR1grr18W3K_KFmwj1-47" value="&lt;u&gt;ID&lt;/u&gt;" style="ellipse;whiteSpace=wrap;html=1;" parent="1" vertex="1">
          <mxGeometry x="610" y="445" width="40" height="25" as="geometry" />
        </mxCell>
        <mxCell id="D2WR1grr18W3K_KFmwj1-48" value="" style="endArrow=none;html=1;rounded=0;exitX=0.5;exitY=0;exitDx=0;exitDy=0;entryX=0.5;entryY=1;entryDx=0;entryDy=0;" parent="1" source="D2WR1grr18W3K_KFmwj1-47" target="D2WR1grr18W3K_KFmwj1-4" edge="1">
          <mxGeometry width="50" height="50" relative="1" as="geometry">
            <mxPoint x="460" y="250" as="sourcePoint" />
            <mxPoint x="510" y="200" as="targetPoint" />
          </mxGeometry>
        </mxCell>
        <mxCell id="D2WR1grr18W3K_KFmwj1-50" value="Gender" style="ellipse;whiteSpace=wrap;html=1;" parent="1" vertex="1">
          <mxGeometry x="470" y="450" width="60" height="30" as="geometry" />
        </mxCell>
        <mxCell id="D2WR1grr18W3K_KFmwj1-51" value="" style="endArrow=none;html=1;rounded=0;entryX=0.5;entryY=0;entryDx=0;entryDy=0;exitX=0;exitY=1;exitDx=0;exitDy=0;" parent="1" source="D2WR1grr18W3K_KFmwj1-4" target="D2WR1grr18W3K_KFmwj1-50" edge="1">
          <mxGeometry width="50" height="50" relative="1" as="geometry">
            <mxPoint x="495" y="400" as="sourcePoint" />
            <mxPoint x="540" y="325" as="targetPoint" />
          </mxGeometry>
        </mxCell>
        <mxCell id="D2WR1grr18W3K_KFmwj1-52" value="Dept" style="ellipse;whiteSpace=wrap;html=1;" parent="1" vertex="1">
          <mxGeometry x="440" y="390" width="60" height="30" as="geometry" />
        </mxCell>
        <mxCell id="D2WR1grr18W3K_KFmwj1-53" value="" style="endArrow=none;html=1;rounded=0;exitX=1;exitY=0.5;exitDx=0;exitDy=0;" parent="1" source="D2WR1grr18W3K_KFmwj1-52" edge="1">
          <mxGeometry width="50" height="50" relative="1" as="geometry">
            <mxPoint x="500" y="455" as="sourcePoint" />
            <mxPoint x="550" y="405" as="targetPoint" />
          </mxGeometry>
        </mxCell>
        <mxCell id="D2WR1grr18W3K_KFmwj1-54" value="Contact" style="ellipse;whiteSpace=wrap;html=1;" parent="1" vertex="1">
          <mxGeometry x="981.25" y="260" width="60" height="25" as="geometry" />
        </mxCell>
        <mxCell id="D2WR1grr18W3K_KFmwj1-55" value="" style="endArrow=none;html=1;rounded=0;entryX=0.5;entryY=0;entryDx=0;entryDy=0;exitX=0.75;exitY=1;exitDx=0;exitDy=0;" parent="1" source="D2WR1grr18W3K_KFmwj1-3" target="D2WR1grr18W3K_KFmwj1-54" edge="1">
          <mxGeometry width="50" height="50" relative="1" as="geometry">
            <mxPoint x="131.25" y="75" as="sourcePoint" />
            <mxPoint x="385" y="122.5" as="targetPoint" />
          </mxGeometry>
        </mxCell>
        <mxCell id="D2WR1grr18W3K_KFmwj1-56" value="conducted&lt;div&gt;By&lt;/div&gt;" style="rhombus;whiteSpace=wrap;html=1;" parent="1" vertex="1">
          <mxGeometry x="380" y="295" width="70" height="60" as="geometry" />
        </mxCell>
        <mxCell id="D2WR1grr18W3K_KFmwj1-57" value="" style="endArrow=none;html=1;rounded=0;exitX=0.5;exitY=1;exitDx=0;exitDy=0;entryX=0;entryY=0;entryDx=0;entryDy=0;" parent="1" source="D2WR1grr18W3K_KFmwj1-56" target="D2WR1grr18W3K_KFmwj1-4" edge="1">
          <mxGeometry width="50" height="50" relative="1" as="geometry">
            <mxPoint x="440" y="240" as="sourcePoint" />
            <mxPoint x="510" y="200" as="targetPoint" />
          </mxGeometry>
        </mxCell>
        <mxCell id="D2WR1grr18W3K_KFmwj1-58" value="" style="endArrow=none;html=1;rounded=0;exitX=1;exitY=1;exitDx=0;exitDy=0;entryX=0.5;entryY=0;entryDx=0;entryDy=0;" parent="1" source="D2WR1grr18W3K_KFmwj1-7" target="D2WR1grr18W3K_KFmwj1-56" edge="1">
          <mxGeometry width="50" height="50" relative="1" as="geometry">
            <mxPoint x="373.75" y="290" as="sourcePoint" />
            <mxPoint x="443.75" y="250" as="targetPoint" />
          </mxGeometry>
        </mxCell>
        <mxCell id="D2WR1grr18W3K_KFmwj1-59" value="Name" style="ellipse;whiteSpace=wrap;html=1;" parent="1" vertex="1">
          <mxGeometry x="926.25" y="267.5" width="55" height="30" as="geometry" />
        </mxCell>
        <mxCell id="D2WR1grr18W3K_KFmwj1-60" value="" style="endArrow=none;html=1;rounded=0;entryX=0.25;entryY=1;entryDx=0;entryDy=0;exitX=0.5;exitY=0;exitDx=0;exitDy=0;" parent="1" source="D2WR1grr18W3K_KFmwj1-59" edge="1">
          <mxGeometry width="50" height="50" relative="1" as="geometry">
            <mxPoint x="1341.25" y="322.5" as="sourcePoint" />
            <mxPoint x="930.25" y="235" as="targetPoint" />
          </mxGeometry>
        </mxCell>
        <mxCell id="D2WR1grr18W3K_KFmwj1-62" value="Gender" style="ellipse;whiteSpace=wrap;html=1;" parent="1" vertex="1">
          <mxGeometry x="861.25" y="267.5" width="60" height="30" as="geometry" />
        </mxCell>
        <mxCell id="D2WR1grr18W3K_KFmwj1-63" value="" style="endArrow=none;html=1;rounded=0;entryX=0.5;entryY=0;entryDx=0;entryDy=0;exitX=0.25;exitY=1;exitDx=0;exitDy=0;" parent="1" source="D2WR1grr18W3K_KFmwj1-3" target="D2WR1grr18W3K_KFmwj1-62" edge="1">
          <mxGeometry width="50" height="50" relative="1" as="geometry">
            <mxPoint x="901.25" y="227.5" as="sourcePoint" />
            <mxPoint x="891.25" y="142.5" as="targetPoint" />
          </mxGeometry>
        </mxCell>
        <mxCell id="D2WR1grr18W3K_KFmwj1-65" value="&lt;u&gt;ID&lt;/u&gt;" style="ellipse;whiteSpace=wrap;html=1;" parent="1" vertex="1">
          <mxGeometry x="1051.25" y="255" width="40" height="25" as="geometry" />
        </mxCell>
        <mxCell id="D2WR1grr18W3K_KFmwj1-66" value="" style="endArrow=none;html=1;rounded=0;entryX=0.5;entryY=0;entryDx=0;entryDy=0;exitX=1;exitY=1;exitDx=0;exitDy=0;" parent="1" source="D2WR1grr18W3K_KFmwj1-3" target="D2WR1grr18W3K_KFmwj1-65" edge="1">
          <mxGeometry width="50" height="50" relative="1" as="geometry">
            <mxPoint x="1056.25" y="220" as="sourcePoint" />
            <mxPoint x="1101.25" y="145" as="targetPoint" />
          </mxGeometry>
        </mxCell>
        <mxCell id="D2WR1grr18W3K_KFmwj1-67" value="Address&amp;nbsp;" style="ellipse;whiteSpace=wrap;html=1;" parent="1" vertex="1">
          <mxGeometry x="1061.25" y="220" width="60" height="25" as="geometry" />
        </mxCell>
        <mxCell id="D2WR1grr18W3K_KFmwj1-68" value="" style="endArrow=none;html=1;rounded=0;entryX=0;entryY=0.5;entryDx=0;entryDy=0;exitX=1;exitY=0.75;exitDx=0;exitDy=0;" parent="1" source="D2WR1grr18W3K_KFmwj1-3" target="D2WR1grr18W3K_KFmwj1-67" edge="1">
          <mxGeometry width="50" height="50" relative="1" as="geometry">
            <mxPoint x="831.25" y="322.5" as="sourcePoint" />
            <mxPoint x="931.25" y="287.5" as="targetPoint" />
          </mxGeometry>
        </mxCell>
        <mxCell id="D2WR1grr18W3K_KFmwj1-69" value="Contact" style="ellipse;whiteSpace=wrap;html=1;" parent="1" vertex="1">
          <mxGeometry x="665" y="445" width="55" height="30" as="geometry" />
        </mxCell>
        <mxCell id="D2WR1grr18W3K_KFmwj1-70" value="" style="endArrow=none;html=1;rounded=0;entryX=0.75;entryY=1;entryDx=0;entryDy=0;exitX=0.5;exitY=0;exitDx=0;exitDy=0;" parent="1" source="D2WR1grr18W3K_KFmwj1-69" target="D2WR1grr18W3K_KFmwj1-4" edge="1">
          <mxGeometry width="50" height="50" relative="1" as="geometry">
            <mxPoint x="1095" y="485" as="sourcePoint" />
            <mxPoint x="800" y="505" as="targetPoint" />
          </mxGeometry>
        </mxCell>
        <mxCell id="D2WR1grr18W3K_KFmwj1-71" value="Address&amp;nbsp;" style="ellipse;whiteSpace=wrap;html=1;" parent="1" vertex="1">
          <mxGeometry x="722.5" y="425" width="60" height="25" as="geometry" />
        </mxCell>
        <mxCell id="D2WR1grr18W3K_KFmwj1-72" value="" style="endArrow=none;html=1;rounded=0;exitX=1;exitY=1;exitDx=0;exitDy=0;entryX=0;entryY=0.5;entryDx=0;entryDy=0;" parent="1" source="D2WR1grr18W3K_KFmwj1-4" target="D2WR1grr18W3K_KFmwj1-71" edge="1">
          <mxGeometry width="50" height="50" relative="1" as="geometry">
            <mxPoint x="840" y="430" as="sourcePoint" />
            <mxPoint x="940" y="395" as="targetPoint" />
          </mxGeometry>
        </mxCell>
        <mxCell id="D2WR1grr18W3K_KFmwj1-75" value="Dept" style="ellipse;whiteSpace=wrap;html=1;" parent="1" vertex="1">
          <mxGeometry x="795" y="252.5" width="60" height="30" as="geometry" />
        </mxCell>
        <mxCell id="D2WR1grr18W3K_KFmwj1-76" value="" style="endArrow=none;html=1;rounded=0;entryX=0;entryY=1;entryDx=0;entryDy=0;exitX=1;exitY=0;exitDx=0;exitDy=0;" parent="1" source="D2WR1grr18W3K_KFmwj1-75" target="D2WR1grr18W3K_KFmwj1-3" edge="1">
          <mxGeometry width="50" height="50" relative="1" as="geometry">
            <mxPoint x="860" y="250" as="sourcePoint" />
            <mxPoint x="881.25" y="252.5" as="targetPoint" />
          </mxGeometry>
        </mxCell>
        <mxCell id="D2WR1grr18W3K_KFmwj1-77" value="Maintain&amp;nbsp;" style="rhombus;whiteSpace=wrap;html=1;" parent="1" vertex="1">
          <mxGeometry x="860" y="100" width="60" height="40" as="geometry" />
        </mxCell>
        <mxCell id="D2WR1grr18W3K_KFmwj1-78" value="" style="endArrow=none;html=1;rounded=0;entryX=0.5;entryY=1;entryDx=0;entryDy=0;exitX=0.5;exitY=0;exitDx=0;exitDy=0;" parent="1" source="D2WR1grr18W3K_KFmwj1-77" target="D2WR1grr18W3K_KFmwj1-5" edge="1">
          <mxGeometry width="50" height="50" relative="1" as="geometry">
            <mxPoint x="670" y="230" as="sourcePoint" />
            <mxPoint x="720" y="180" as="targetPoint" />
          </mxGeometry>
        </mxCell>
        <mxCell id="D2WR1grr18W3K_KFmwj1-79" value="" style="endArrow=none;html=1;rounded=0;entryX=0.5;entryY=1;entryDx=0;entryDy=0;exitX=0.5;exitY=0;exitDx=0;exitDy=0;" parent="1" source="D2WR1grr18W3K_KFmwj1-3" target="D2WR1grr18W3K_KFmwj1-77" edge="1">
          <mxGeometry width="50" height="50" relative="1" as="geometry">
            <mxPoint x="670" y="230" as="sourcePoint" />
            <mxPoint x="720" y="180" as="targetPoint" />
          </mxGeometry>
        </mxCell>
        <mxCell id="D2WR1grr18W3K_KFmwj1-80" value="Name" style="ellipse;whiteSpace=wrap;html=1;" parent="1" vertex="1">
          <mxGeometry x="962.5" y="-18" width="47.5" height="30" as="geometry" />
        </mxCell>
        <mxCell id="D2WR1grr18W3K_KFmwj1-81" value="" style="endArrow=none;html=1;rounded=0;entryX=1;entryY=0.75;entryDx=0;entryDy=0;exitX=0;exitY=0.5;exitDx=0;exitDy=0;" parent="1" source="D2WR1grr18W3K_KFmwj1-80" target="D2WR1grr18W3K_KFmwj1-5" edge="1">
          <mxGeometry width="50" height="50" relative="1" as="geometry">
            <mxPoint x="1430" y="40.75" as="sourcePoint" />
            <mxPoint x="1019" y="-46.75" as="targetPoint" />
          </mxGeometry>
        </mxCell>
        <mxCell id="D2WR1grr18W3K_KFmwj1-82" value="&lt;u&gt;Lab code&lt;/u&gt;" style="ellipse;whiteSpace=wrap;html=1;" parent="1" vertex="1">
          <mxGeometry x="950" y="-52.5" width="60" height="25" as="geometry" />
        </mxCell>
        <mxCell id="D2WR1grr18W3K_KFmwj1-83" value="" style="endArrow=none;html=1;rounded=0;entryX=0;entryY=0.5;entryDx=0;entryDy=0;exitX=1;exitY=0;exitDx=0;exitDy=0;" parent="1" source="D2WR1grr18W3K_KFmwj1-5" target="D2WR1grr18W3K_KFmwj1-82" edge="1">
          <mxGeometry width="50" height="50" relative="1" as="geometry">
            <mxPoint x="945" y="-90" as="sourcePoint" />
            <mxPoint x="1198.75" y="-42.5" as="targetPoint" />
          </mxGeometry>
        </mxCell>
        <mxCell id="D2WR1grr18W3K_KFmwj1-84" value="" style="endArrow=none;html=1;rounded=0;entryX=0.75;entryY=0;entryDx=0;entryDy=0;exitX=0.5;exitY=1;exitDx=0;exitDy=0;" parent="1" source="D2WR1grr18W3K_KFmwj1-112" target="D2WR1grr18W3K_KFmwj1-5" edge="1">
          <mxGeometry width="50" height="50" relative="1" as="geometry">
            <mxPoint x="880" y="-48" as="sourcePoint" />
            <mxPoint x="770" y="-8" as="targetPoint" />
          </mxGeometry>
        </mxCell>
        <mxCell id="D2WR1grr18W3K_KFmwj1-86" value="Dept" style="ellipse;whiteSpace=wrap;html=1;" parent="1" vertex="1">
          <mxGeometry x="980" y="22" width="60" height="30" as="geometry" />
        </mxCell>
        <mxCell id="D2WR1grr18W3K_KFmwj1-92" value="" style="endArrow=none;html=1;rounded=0;entryX=0;entryY=0.5;entryDx=0;entryDy=0;exitX=1;exitY=1;exitDx=0;exitDy=0;" parent="1" source="D2WR1grr18W3K_KFmwj1-5" target="D2WR1grr18W3K_KFmwj1-86" edge="1">
          <mxGeometry width="50" height="50" relative="1" as="geometry">
            <mxPoint x="720" y="42" as="sourcePoint" />
            <mxPoint x="770" y="-8" as="targetPoint" />
          </mxGeometry>
        </mxCell>
        <mxCell id="D2WR1grr18W3K_KFmwj1-93" value="Name" style="ellipse;whiteSpace=wrap;html=1;" parent="1" vertex="1">
          <mxGeometry x="425" y="-133.75" width="50" height="30" as="geometry" />
        </mxCell>
        <mxCell id="D2WR1grr18W3K_KFmwj1-94" value="" style="endArrow=none;html=1;rounded=0;entryX=0.5;entryY=1;entryDx=0;entryDy=0;exitX=0.25;exitY=0;exitDx=0;exitDy=0;" parent="1" source="D2WR1grr18W3K_KFmwj1-6" target="D2WR1grr18W3K_KFmwj1-93" edge="1">
          <mxGeometry width="50" height="50" relative="1" as="geometry">
            <mxPoint x="625" y="6.25" as="sourcePoint" />
            <mxPoint x="675" y="-43.75" as="targetPoint" />
          </mxGeometry>
        </mxCell>
        <mxCell id="D2WR1grr18W3K_KFmwj1-95" value="&lt;u&gt;Practical ID&lt;/u&gt;" style="ellipse;whiteSpace=wrap;html=1;" parent="1" vertex="1">
          <mxGeometry x="515" y="-143.75" width="70" height="30" as="geometry" />
        </mxCell>
        <mxCell id="D2WR1grr18W3K_KFmwj1-96" value="" style="endArrow=none;html=1;rounded=0;entryX=0.5;entryY=1;entryDx=0;entryDy=0;exitX=0.5;exitY=0;exitDx=0;exitDy=0;" parent="1" source="D2WR1grr18W3K_KFmwj1-6" target="D2WR1grr18W3K_KFmwj1-95" edge="1">
          <mxGeometry width="50" height="50" relative="1" as="geometry">
            <mxPoint x="625" y="6.25" as="sourcePoint" />
            <mxPoint x="675" y="-43.75" as="targetPoint" />
          </mxGeometry>
        </mxCell>
        <mxCell id="D2WR1grr18W3K_KFmwj1-98" value="" style="endArrow=none;html=1;rounded=0;entryX=0;entryY=1;entryDx=0;entryDy=0;exitX=0.5;exitY=0;exitDx=0;exitDy=0;" parent="1" source="D2WR1grr18W3K_KFmwj1-109" target="D2WR1grr18W3K_KFmwj1-6" edge="1">
          <mxGeometry width="50" height="50" relative="1" as="geometry">
            <mxPoint x="400" y="30" as="sourcePoint" />
            <mxPoint x="490" y="100" as="targetPoint" />
          </mxGeometry>
        </mxCell>
        <mxCell id="D2WR1grr18W3K_KFmwj1-99" value="" style="endArrow=none;html=1;rounded=0;exitX=0.5;exitY=0;exitDx=0;exitDy=0;entryX=0.5;entryY=1;entryDx=0;entryDy=0;" parent="1" source="D2WR1grr18W3K_KFmwj1-7" target="D2WR1grr18W3K_KFmwj1-109" edge="1">
          <mxGeometry width="50" height="50" relative="1" as="geometry">
            <mxPoint x="440" y="150" as="sourcePoint" />
            <mxPoint x="360" y="130" as="targetPoint" />
          </mxGeometry>
        </mxCell>
        <mxCell id="D2WR1grr18W3K_KFmwj1-100" value="Assigns" style="rhombus;whiteSpace=wrap;html=1;" parent="1" vertex="1">
          <mxGeometry x="585" y="280" width="65" height="40" as="geometry" />
        </mxCell>
        <mxCell id="D2WR1grr18W3K_KFmwj1-101" value="" style="endArrow=none;html=1;rounded=0;entryX=0.5;entryY=1;entryDx=0;entryDy=0;exitX=0.5;exitY=0;exitDx=0;exitDy=0;" parent="1" source="D2WR1grr18W3K_KFmwj1-100" target="D2WR1grr18W3K_KFmwj1-20" edge="1">
          <mxGeometry width="50" height="50" relative="1" as="geometry">
            <mxPoint x="510" y="230" as="sourcePoint" />
            <mxPoint x="560" y="180" as="targetPoint" />
          </mxGeometry>
        </mxCell>
        <mxCell id="D2WR1grr18W3K_KFmwj1-102" value="" style="endArrow=none;html=1;rounded=0;entryX=0.5;entryY=1;entryDx=0;entryDy=0;" parent="1" target="D2WR1grr18W3K_KFmwj1-100" edge="1">
          <mxGeometry width="50" height="50" relative="1" as="geometry">
            <mxPoint x="610" y="370" as="sourcePoint" />
            <mxPoint x="660" y="320" as="targetPoint" />
          </mxGeometry>
        </mxCell>
        <mxCell id="D2WR1grr18W3K_KFmwj1-103" value="Held" style="rhombus;whiteSpace=wrap;html=1;" parent="1" vertex="1">
          <mxGeometry x="660" y="-65" width="80" height="50" as="geometry" />
        </mxCell>
        <mxCell id="D2WR1grr18W3K_KFmwj1-109" value="" style="rhombus;whiteSpace=wrap;html=1;" parent="1" vertex="1">
          <mxGeometry x="370" y="60" width="80" height="80" as="geometry" />
        </mxCell>
        <mxCell id="D2WR1grr18W3K_KFmwj1-104" value="" style="endArrow=none;html=1;rounded=0;entryX=1;entryY=0.5;entryDx=0;entryDy=0;" parent="1" source="D2WR1grr18W3K_KFmwj1-103" target="D2WR1grr18W3K_KFmwj1-6" edge="1">
          <mxGeometry width="50" height="50" relative="1" as="geometry">
            <mxPoint x="520" y="230" as="sourcePoint" />
            <mxPoint x="570" y="180" as="targetPoint" />
          </mxGeometry>
        </mxCell>
        <mxCell id="D2WR1grr18W3K_KFmwj1-105" value="" style="endArrow=none;html=1;rounded=0;entryX=1;entryY=0.5;entryDx=0;entryDy=0;exitX=0;exitY=0.5;exitDx=0;exitDy=0;" parent="1" source="D2WR1grr18W3K_KFmwj1-5" target="D2WR1grr18W3K_KFmwj1-103" edge="1">
          <mxGeometry width="50" height="50" relative="1" as="geometry">
            <mxPoint x="520" y="230" as="sourcePoint" />
            <mxPoint x="570" y="180" as="targetPoint" />
          </mxGeometry>
        </mxCell>
        <mxCell id="D2WR1grr18W3K_KFmwj1-107" value="Enroll" style="rhombus;whiteSpace=wrap;html=1;" parent="1" vertex="1">
          <mxGeometry x="230" y="82.5" width="80" height="65" as="geometry" />
        </mxCell>
        <mxCell id="D2WR1grr18W3K_KFmwj1-112" value="" style="ellipse;whiteSpace=wrap;html=1;" parent="1" vertex="1">
          <mxGeometry x="850" y="-93" width="80" height="50" as="geometry" />
        </mxCell>
        <mxCell id="D2WR1grr18W3K_KFmwj1-111" value="Contains" style="rhombus;whiteSpace=wrap;html=1;" parent="1" vertex="1">
          <mxGeometry x="380" y="70" width="60" height="60" as="geometry" />
        </mxCell>
        <mxCell id="D2WR1grr18W3K_KFmwj1-113" value="Instrument" style="ellipse;whiteSpace=wrap;html=1;" parent="1" vertex="1">
          <mxGeometry x="855" y="-89.25" width="70" height="42.5" as="geometry" />
        </mxCell>
        <mxCell id="D2WR1grr18W3K_KFmwj1-117" value="Phone" style="ellipse;whiteSpace=wrap;html=1;" parent="1" vertex="1">
          <mxGeometry x="963.75" y="305.00000000000006" width="60" height="30" as="geometry" />
        </mxCell>
        <mxCell id="D2WR1grr18W3K_KFmwj1-118" value="E-mail" style="ellipse;whiteSpace=wrap;html=1;" parent="1" vertex="1">
          <mxGeometry x="1031.25" y="305.00000000000006" width="60" height="30" as="geometry" />
        </mxCell>
        <mxCell id="D2WR1grr18W3K_KFmwj1-119" value="" style="endArrow=none;html=1;rounded=0;exitX=0.5;exitY=0;exitDx=0;exitDy=0;entryX=1;entryY=1;entryDx=0;entryDy=0;" parent="1" source="D2WR1grr18W3K_KFmwj1-118" target="D2WR1grr18W3K_KFmwj1-54" edge="1">
          <mxGeometry width="50" height="50" relative="1" as="geometry">
            <mxPoint x="971.25" y="64.46000000000001" as="sourcePoint" />
            <mxPoint x="1081.25" y="295" as="targetPoint" />
          </mxGeometry>
        </mxCell>
        <mxCell id="D2WR1grr18W3K_KFmwj1-120" value="" style="endArrow=none;html=1;rounded=0;entryX=0;entryY=1;entryDx=0;entryDy=0;exitX=0.5;exitY=0;exitDx=0;exitDy=0;" parent="1" source="D2WR1grr18W3K_KFmwj1-117" target="D2WR1grr18W3K_KFmwj1-54" edge="1">
          <mxGeometry width="50" height="50" relative="1" as="geometry">
            <mxPoint x="971.25" y="64.46000000000001" as="sourcePoint" />
            <mxPoint x="1004.1795163783577" y="304.99795271934636" as="targetPoint" />
          </mxGeometry>
        </mxCell>
        <mxCell id="D2WR1grr18W3K_KFmwj1-123" value="Contact" style="ellipse;whiteSpace=wrap;html=1;" parent="1" vertex="1">
          <mxGeometry x="13.75" y="1.25" width="60" height="25" as="geometry" />
        </mxCell>
        <mxCell id="D2WR1grr18W3K_KFmwj1-124" value="" style="endArrow=none;html=1;rounded=0;entryX=1;entryY=0.5;entryDx=0;entryDy=0;exitX=0;exitY=0.75;exitDx=0;exitDy=0;" parent="1" target="D2WR1grr18W3K_KFmwj1-123" edge="1">
          <mxGeometry width="50" height="50" relative="1" as="geometry">
            <mxPoint x="113.75" y="13.75" as="sourcePoint" />
            <mxPoint x="-572.5" y="-133.75" as="targetPoint" />
          </mxGeometry>
        </mxCell>
        <mxCell id="D2WR1grr18W3K_KFmwj1-125" value="Phone" style="ellipse;whiteSpace=wrap;html=1;" parent="1" vertex="1">
          <mxGeometry x="-20" y="63.75" width="60" height="30" as="geometry" />
        </mxCell>
        <mxCell id="D2WR1grr18W3K_KFmwj1-126" value="E-mail" style="ellipse;whiteSpace=wrap;html=1;" parent="1" vertex="1">
          <mxGeometry x="47.5" y="63.75" width="60" height="30" as="geometry" />
        </mxCell>
        <mxCell id="D2WR1grr18W3K_KFmwj1-127" value="" style="endArrow=none;html=1;rounded=0;entryX=0.382;entryY=0.988;entryDx=0;entryDy=0;entryPerimeter=0;exitX=0.5;exitY=0;exitDx=0;exitDy=0;" parent="1" source="D2WR1grr18W3K_KFmwj1-125" target="D2WR1grr18W3K_KFmwj1-123" edge="1">
          <mxGeometry width="50" height="50" relative="1" as="geometry">
            <mxPoint x="-26.25" y="78.75" as="sourcePoint" />
            <mxPoint x="23.75" y="28.75" as="targetPoint" />
          </mxGeometry>
        </mxCell>
        <mxCell id="D2WR1grr18W3K_KFmwj1-129" value="" style="endArrow=none;html=1;rounded=0;entryX=0.5;entryY=1;entryDx=0;entryDy=0;exitX=0.5;exitY=0;exitDx=0;exitDy=0;" parent="1" source="D2WR1grr18W3K_KFmwj1-126" target="D2WR1grr18W3K_KFmwj1-123" edge="1">
          <mxGeometry width="50" height="50" relative="1" as="geometry">
            <mxPoint x="623.75" y="198.75" as="sourcePoint" />
            <mxPoint x="673.75" y="148.75" as="targetPoint" />
          </mxGeometry>
        </mxCell>
        <mxCell id="D2WR1grr18W3K_KFmwj1-130" value="Phone" style="ellipse;whiteSpace=wrap;html=1;" parent="1" vertex="1">
          <mxGeometry x="630" y="490" width="60" height="30" as="geometry" />
        </mxCell>
        <mxCell id="D2WR1grr18W3K_KFmwj1-131" value="E-mail" style="ellipse;whiteSpace=wrap;html=1;" parent="1" vertex="1">
          <mxGeometry x="697.5" y="490" width="60" height="30" as="geometry" />
        </mxCell>
        <mxCell id="D2WR1grr18W3K_KFmwj1-132" value="" style="endArrow=none;html=1;rounded=0;entryX=0.5;entryY=0;entryDx=0;entryDy=0;exitX=0.5;exitY=1;exitDx=0;exitDy=0;" parent="1" source="D2WR1grr18W3K_KFmwj1-69" target="D2WR1grr18W3K_KFmwj1-130" edge="1">
          <mxGeometry width="50" height="50" relative="1" as="geometry">
            <mxPoint x="640" y="230" as="sourcePoint" />
            <mxPoint x="690" y="180" as="targetPoint" />
          </mxGeometry>
        </mxCell>
        <mxCell id="D2WR1grr18W3K_KFmwj1-133" value="" style="endArrow=none;html=1;rounded=0;entryX=0.5;entryY=0;entryDx=0;entryDy=0;exitX=1;exitY=1;exitDx=0;exitDy=0;" parent="1" source="D2WR1grr18W3K_KFmwj1-69" target="D2WR1grr18W3K_KFmwj1-131" edge="1">
          <mxGeometry width="50" height="50" relative="1" as="geometry">
            <mxPoint x="640" y="230" as="sourcePoint" />
            <mxPoint x="690" y="180" as="targetPoint" />
          </mxGeometry>
        </mxCell>
        <mxCell id="D2WR1grr18W3K_KFmwj1-134" value="Phone" style="ellipse;whiteSpace=wrap;html=1;" parent="1" vertex="1">
          <mxGeometry x="551.25" y="12" width="60" height="30" as="geometry" />
        </mxCell>
        <mxCell id="D2WR1grr18W3K_KFmwj1-135" value="E-mail" style="ellipse;whiteSpace=wrap;html=1;" parent="1" vertex="1">
          <mxGeometry x="618.75" y="12" width="60" height="30" as="geometry" />
        </mxCell>
        <mxCell id="D2WR1grr18W3K_KFmwj1-136" value="" style="endArrow=none;html=1;rounded=0;entryX=0.5;entryY=1;entryDx=0;entryDy=0;exitX=0;exitY=0;exitDx=0;exitDy=0;" parent="1" source="D2WR1grr18W3K_KFmwj1-33" target="D2WR1grr18W3K_KFmwj1-134" edge="1">
          <mxGeometry width="50" height="50" relative="1" as="geometry">
            <mxPoint x="614" y="-3" as="sourcePoint" />
            <mxPoint x="611.25" y="-298" as="targetPoint" />
          </mxGeometry>
        </mxCell>
        <mxCell id="D2WR1grr18W3K_KFmwj1-137" value="" style="endArrow=none;html=1;rounded=0;entryX=0.5;entryY=1;entryDx=0;entryDy=0;exitX=0.5;exitY=0;exitDx=0;exitDy=0;" parent="1" source="D2WR1grr18W3K_KFmwj1-33" target="D2WR1grr18W3K_KFmwj1-135" edge="1">
          <mxGeometry width="50" height="50" relative="1" as="geometry">
            <mxPoint x="633" y="-7" as="sourcePoint" />
            <mxPoint x="611.25" y="-298" as="targetPoint" />
          </mxGeometry>
        </mxCell>
        <mxCell id="D2WR1grr18W3K_KFmwj1-138" value="" style="endArrow=none;html=1;rounded=0;exitX=0.97;exitY=1.028;exitDx=0;exitDy=0;entryX=0.445;entryY=0.059;entryDx=0;entryDy=0;entryPerimeter=0;exitPerimeter=0;" parent="1" source="D2WR1grr18W3K_KFmwj1-7" target="D2WR1grr18W3K_KFmwj1-56" edge="1">
          <mxGeometry width="50" height="50" relative="1" as="geometry">
            <mxPoint x="583.75" y="270" as="sourcePoint" />
            <mxPoint x="413.75" y="290" as="targetPoint" />
          </mxGeometry>
        </mxCell>
        <mxCell id="D2WR1grr18W3K_KFmwj1-139" value="" style="endArrow=none;html=1;rounded=0;entryX=0.441;entryY=0.015;entryDx=0;entryDy=0;entryPerimeter=0;exitX=0.468;exitY=1.001;exitDx=0;exitDy=0;exitPerimeter=0;" parent="1" source="D2WR1grr18W3K_KFmwj1-20" target="D2WR1grr18W3K_KFmwj1-100" edge="1">
          <mxGeometry width="50" height="50" relative="1" as="geometry">
            <mxPoint x="600" y="220" as="sourcePoint" />
            <mxPoint x="640" y="320" as="targetPoint" />
          </mxGeometry>
        </mxCell>
        <mxCell id="D2WR1grr18W3K_KFmwj1-143" value="N" style="shape=note;whiteSpace=wrap;html=1;backgroundOutline=1;fontColor=#000000;darkOpacity=0.05;fillColor=#FFF9B2;strokeColor=none;fillStyle=solid;direction=west;gradientDirection=north;gradientColor=#FFF2A1;shadow=1;size=20;pointerEvents=1;" parent="1" vertex="1">
          <mxGeometry x="645" y="-61.25" width="20" height="10" as="geometry" />
        </mxCell>
        <mxCell id="D2WR1grr18W3K_KFmwj1-144" value="N" style="shape=note;whiteSpace=wrap;html=1;backgroundOutline=1;fontColor=#000000;darkOpacity=0.05;fillColor=#FFF9B2;strokeColor=none;fillStyle=solid;direction=west;gradientDirection=north;gradientColor=#FFF2A1;shadow=1;size=20;pointerEvents=1;" parent="1" vertex="1">
          <mxGeometry x="253.75" y="165" width="20" height="10" as="geometry" />
        </mxCell>
        <mxCell id="D2WR1grr18W3K_KFmwj1-145" value="N" style="shape=note;whiteSpace=wrap;html=1;backgroundOutline=1;fontColor=#000000;darkOpacity=0.05;fillColor=#FFF9B2;strokeColor=none;fillStyle=solid;direction=west;gradientDirection=north;gradientColor=#FFF2A1;shadow=1;size=20;pointerEvents=1;" parent="1" vertex="1">
          <mxGeometry x="403.75" y="272.5" width="20" height="10" as="geometry" />
        </mxCell>
        <mxCell id="D2WR1grr18W3K_KFmwj1-146" value="M" style="shape=note;whiteSpace=wrap;html=1;backgroundOutline=1;fontColor=#000000;darkOpacity=0.05;fillColor=#FFF9B2;strokeColor=none;fillStyle=solid;direction=west;gradientDirection=north;gradientColor=#FFF2A1;shadow=1;size=6;pointerEvents=1;" parent="1" vertex="1">
          <mxGeometry x="455" y="345" width="20" height="10" as="geometry" />
        </mxCell>
        <mxCell id="D2WR1grr18W3K_KFmwj1-151" value="N" style="shape=note;whiteSpace=wrap;html=1;backgroundOutline=1;fontColor=#000000;darkOpacity=0.05;fillColor=#FFF9B2;strokeColor=none;fillStyle=solid;direction=west;gradientDirection=north;gradientColor=#FFF2A1;shadow=1;size=20;pointerEvents=1;" parent="1" vertex="1">
          <mxGeometry x="420" y="47.5" width="20" height="10" as="geometry" />
        </mxCell>
      </root>
    </mxGraphModel>
  </diagram>
</mxfile>
